<svg width="104" height="16" fill="none" xmlns="http://www.w3.org/2000/svg">
  <path d="M101.071 7.6453c-.683 0-1.3071.0394-1.8719.1182-.5649.0788-1.1757.2365-1.8325.473v7.527H93.938V4.5714h2.5419l.5123 1.3202c.6831-.5517 1.353-.9458 2.0098-1.1823.6569-.2364 1.347-.3547 2.069-.3547v3.2907ZM92.2985 15.6453c-.4204.092-.7948.1577-1.1232.1971-.3152.0394-.6896.0591-1.1231.0591-1.2611 0-2.0887-.4072-2.4828-1.2217-.5517.4072-1.1034.7159-1.6552.9261-.5517.2102-1.156.3153-1.8128.3153-.5911 0-1.1231-.1248-1.596-.3744-.473-.2496-.8408-.5846-1.1035-1.0049-.2627-.4204-.3941-.8802-.3941-1.3793 0-.8408.2102-1.5041.6306-1.9902.4335-.4992 1.0115-.8933 1.7339-1.1823.7225-.302 1.8194-.6633 3.2907-1.0837l.5911-.1773v-.0789c0-1.2085-.5517-1.8128-1.6551-1.8128-.5386 0-1.1166.1183-1.734.3547-.6174.2365-1.3268.6174-2.1281 1.1429l-.6503-2.3646c.8933-.5123 1.7997-.913 2.7192-1.202.9327-.289 1.918-.4334 2.9557-.4334 1.2611 0 2.2266.3415 2.8966 1.0246.6831.683 1.0246 1.8522 1.0246 3.5074v3.7438c0 .289.0591.4992.1773.6306.1183.1182.3088.1773.5715.1773a2.931 2.931 0 0 0 .7488-.0985l.1182 2.3251Zm-7.8621-2.9359c0 .2627.0657.4532.197.5714.1445.1182.3679.1773.67.1773.5517 0 1.202-.2364 1.9507-.7093v-2.0887l-.2955.0985c-.9853.3547-1.6552.67-2.0099.9458-.3415.2628-.5123.5977-.5123 1.005ZM75.1822 16c-1.6289 0-3.0082-.3153-4.1379-.9458-1.1298-.6437-1.977-1.491-2.5419-2.5419-.5517-1.0641-.8276-2.22-.8276-3.468 0-1.2348.289-2.3777.867-3.4286.5911-1.0509 1.4647-1.8916 2.6207-2.5222 1.156-.6305 2.5484-.9458 4.1773-.9458 1.5239 0 2.8638.2956 4.0198.8867l-.7094 2.4828a7.8962 7.8962 0 0 0-1.5172-.5911c-.5255-.1577-1.1232-.2365-1.7932-.2365-.8538 0-1.596.197-2.2266.5911-.6174.381-1.0903.9065-1.4187 1.5764-.3153.6568-.4729 1.3925-.4729 2.207 0 1.2873.3416 2.3447 1.0246 3.1723.6831.8145 1.6618 1.2217 2.936 1.2217 1.0903 0 2.266-.2693 3.5271-.8079l.67 2.4237c-.5386.2758-1.1823.4992-1.9311.6699a10.1573 10.1573 0 0 1-2.266.2562Z" fill="#3470FF"/>
  <path d="M61.7836 0h3.4285v15.7636h-3.4285V0ZM60.1439 15.6453c-.4203.092-.7947.1577-1.1231.1971-.3153.0394-.6897.0591-1.1232.0591-1.2611 0-2.0887-.4072-2.4827-1.2217-.5518.4072-1.1035.7159-1.6552.9261-.5517.2102-1.156.3153-1.8128.3153-.5912 0-1.1232-.1248-1.5961-.3744-.4729-.2496-.8407-.5846-1.1034-1.0049-.2628-.4204-.3941-.8802-.3941-1.3793 0-.8408.2102-1.5041.6305-1.9902.4335-.4992 1.0115-.8933 1.734-1.1823.7225-.302 1.8194-.6633 3.2907-1.0837l.5911-.1773v-.0789c0-1.2085-.5517-1.8128-1.6552-1.8128-.5386 0-1.1166.1183-1.734.3547-.6174.2365-1.3267.6174-2.1281 1.1429l-.6502-2.3646c.8933-.5123 1.7997-.913 2.7192-1.202.9327-.289 1.9179-.4334 2.9557-.4334 1.2611 0 2.2266.3415 2.8965 1.0246.6831.683 1.0247 1.8522 1.0247 3.5074v3.7438c0 .289.0591.4992.1773.6306.1182.1182.3087.1773.5714.1773a2.931 2.931 0 0 0 .7488-.0985l.1182 2.3251Zm-7.8621-2.9359c0 .2627.0657.4532.1971.5714.1445.1182.3678.1773.6699.1773.5518 0 1.202-.2364 1.9508-.7093v-2.0887l-.2956.0985c-.9852.3547-1.6552.67-2.0098.9458-.3416.2628-.5124.5977-.5124 1.005ZM47.6242 15.0345c-.3941.2759-.867.4927-1.4187.6503-.5386.1445-1.0641.2167-1.5764.2167-1.3924 0-2.4302-.3021-3.1133-.9064-.6831-.6174-1.0246-1.4975-1.0246-2.6404V6.9951h-1.6749V5.5567l2.1084-.8473.9458-3.0148h2.0492v2.8769h3.1528V6.995h-3.1528v4.532c0 .6963.1117 1.1889.335 1.4779.2233.289.5583.4335 1.0049.4335.578 0 1.1889-.1708 1.8326-.5123l.532 2.1083ZM33.1902 4.335c1.4581 0 2.463.3875 3.0147 1.1625.5649.775.8473 1.8917.8473 3.3498v6.9163h-3.4285V9.2808c0-.9196-.1117-1.5567-.335-1.9113-.2102-.3547-.624-.532-1.2414-.532-.67 0-1.353.2232-2.0493.6699v8.2562h-3.4285V4.5714h2.5418l.3547.9261c1.2874-.775 2.5288-1.1625 3.7242-1.1625ZM17.0283 10.798c.0657.9327.2956 1.6224.6897 2.069.3941.4466.9983.6699 1.8128.6699.6043 0 1.1626-.105 1.6749-.3152.5254-.2233 1.1231-.5517 1.7931-.9852l.9261 2.1674c-.6962.5649-1.3859.9721-2.069 1.2217-.6831.2496-1.4647.3744-2.3448.3744-1.3005 0-2.3908-.2496-3.2709-.7488-.8802-.5123-1.537-1.2019-1.9705-2.0689-.4204-.8802-.6305-1.8785-.6305-2.9951 0-1.7734.4991-3.1921 1.4975-4.2562.9984-1.064 2.4565-1.596 4.3744-1.596 1.5238 0 2.6798.4138 3.468 1.2413.8013.8145 1.2085 1.977 1.2217 3.4877a5.9584 5.9584 0 0 1-.2562 1.734h-6.9163Zm3.8424-2.2266c.0131-.0788.0197-.1839.0197-.3153-.0131-.5385-.1576-.9458-.4335-1.2216-.2759-.289-.6568-.4335-1.1429-.4335-1.1559 0-1.8784.6568-2.1674 1.9704h3.7241ZM5.4384 10.8375H3.5468v4.9261H0V2.3646h5.3596c1.918 0 3.317.3283 4.197.9852.8802.6436 1.3203 1.6617 1.3203 3.0541 0 1.8129-.6634 3.028-1.9902 3.6454l3.7636 5.7143H8.5517l-3.1133-4.9261ZM3.5468 8.3744h1.8128c.6962 0 1.1954-.1445 1.4976-.4335.3152-.289.4729-.7356.4729-1.3399 0-.6306-.1511-1.0838-.4532-1.3596-.3022-.2759-.808-.4138-1.5173-.4138H3.5468v3.5468Z" fill="#101828"/>
</svg>
